<svg xmlns="http://www.w3.org/2000/svg" xmlns:xlink="http://www.w3.org/1999/xlink" width="20" height="20"><defs><path id="a" d="M946.94 337.9a10.09 10.09 0 0 1 0 2.2l-2.74.97a7.52 7.52 0 0 1-.64 1.56l1.24 2.61c-.46.58-.98 1.1-1.55 1.56l-2.62-1.24c-.49.27-1 .48-1.56.64l-.97 2.74a10.09 10.09 0 0 1-2.2 0l-.97-2.74a7.5 7.5 0 0 1-1.56-.64l-2.61 1.24c-.58-.46-1.1-.98-1.56-1.56l1.24-2.6a7.47 7.47 0 0 1-.64-1.57l-2.74-.97a9.99 9.99 0 0 1 0-2.2l2.74-.97c.15-.55.37-1.07.64-1.56l-1.24-2.62c.46-.57.98-1.1 1.55-1.55l2.62 1.24a7.5 7.5 0 0 1 1.56-.64l.97-2.74a10.02 10.02 0 0 1 2.2 0l.97 2.74a7.5 7.5 0 0 1 1.56.64l2.62-1.24c.57.46 1.1.98 1.55 1.55l-1.24 2.62c.27.49.49 1 .64 1.56zM942 339a5 5 0 1 0-10 0 5 5 0 0 0 10 0zm-5-2.5a2.5 2.5 0 1 1 0 5 2.5 2.5 0 0 1 0-5z"/></defs><use fill="#8c9c93" xlink:href="#a" transform="translate(-927 -329)"/></svg>