<svg xmlns="http://www.w3.org/2000/svg" xmlns:xlink="http://www.w3.org/1999/xlink" width="20" height="20"><defs><path id="a" d="M1027 332.51v15.24c0 .69-.56 1.25-1.25 1.25h-17.5c-.69 0-1.25-.56-1.25-1.25v-15.24h.07c.16-.5.62-.88 1.18-.88h1.24v1.94a1.88 1.88 0 0 0 3.75 0v-1.94h7.51v1.94a1.88 1.88 0 0 0 3.75 0v-1.94h1.25c.56 0 1.02.38 1.18.88zm-1.25 5.24h-17.5v10h17.5zm-15-4.18v-3.95a.63.63 0 0 1 1.24 0v3.95a.63.63 0 0 1-1.25 0zm11.25 0v-3.95a.63.63 0 0 1 1.25 0v3.95a.63.63 0 0 1-1.25 0z"/></defs><use fill="#8c9c93" xlink:href="#a" transform="translate(-1007 -329)"/></svg>