<svg xmlns="http://www.w3.org/2000/svg" xmlns:xlink="http://www.w3.org/1999/xlink" width="50" height="50" viewBox="0 0 50 50"><defs><path id="2rhua" d="M591.33 145a4.68 4.68 0 1 0 6.63 6.63l15.4-15.38-6.63-6.62zm38.48-28.5l6.7-3.45 3.51-6.78-3.27-3.27-6.79 3.5-3.47 6.7-8.16 8.15 3.31 3.31zm1.46 17.78c-.2 0-.41-.06-.63-.06a9.3 9.3 0 0 0-3.24.6l-19.25-19.22c.38-1 .61-2.1.61-3.23 0-.22-.05-.42-.06-.64a9.29 9.29 0 0 0-13.34-7.8l6.23 6.23c.33.33.56.71.7 1.12a3.11 3.11 0 0 1-2.9 4.2 3.1 3.1 0 0 1-1.1-.2 3.1 3.1 0 0 1-1.12-.7l-6.23-6.23a9.26 9.26 0 0 0 7.81 13.32c.21.01.42.06.63.06a9.3 9.3 0 0 0 3.24-.6l19.25 19.22a9.28 9.28 0 0 0-.6 3.24c0 .21.04.42.06.63a9.3 9.3 0 0 0 13.34 7.8l-6.24-6.23a3.02 3.02 0 0 1-.7-1.12 3.11 3.11 0 0 1 2.91-4.2c.37 0 .74.08 1.09.2.4.16.8.38 1.12.7l6.23 6.23c.59-1.22.94-2.57.94-4.01a9.34 9.34 0 0 0-8.75-9.3z"/></defs><g><g transform="translate(-590 -103)"><use fill="#3dcf7e" xlink:href="#2rhua"/></g></g></svg>