<svg xmlns="http://www.w3.org/2000/svg" xmlns:xlink="http://www.w3.org/1999/xlink" width="15" height="12"><defs><path id="a" d="M423.59 741.22c-.6.35-1.26.6-1.96.74a3.1 3.1 0 0 0-5.32 2.07 3 3 0 0 0 .08.69 8.78 8.78 0 0 1-6.34-3.17 3.02 3.02 0 0 0 .95 4.04c-.5 0-.98-.14-1.4-.37v.04c0 1.46 1.06 2.69 2.47 2.97a3.11 3.11 0 0 1-1.39.05 3.08 3.08 0 0 0 2.88 2.1 6.24 6.24 0 0 1-4.56 1.26 8.81 8.81 0 0 0 4.72 1.36 8.63 8.63 0 0 0 8.74-9.01c.6-.43 1.13-.96 1.54-1.57-.55.24-1.14.4-1.77.48a3.05 3.05 0 0 0 1.36-1.68z"/></defs><use fill="#fff" xlink:href="#a" transform="translate(-409 -741)"/></svg>